<svg fill="#d1d5db" xmlns="http://www.w3.org/2000/svg" viewBox="0 0 64 64" x="0px" y="0px"><title>02 Dictionary</title><g data-name="02 Dictionary"><path d="M15,26h6.69A10.4,10.4,0,0,1,20.1,28.932a12.47,12.47,0,0,1-1.272-1.488,1,1,0,0,0-1.663,1.111,13.793,13.793,0,0,0,1.541,1.817,9.252,9.252,0,0,1-3.025,1.679,1,1,0,0,0,.632,1.9,11.213,11.213,0,0,0,3.892-2.216A18.3,18.3,0,0,0,23.553,33.9a1,1,0,1,0,.894-1.79A16.156,16.156,0,0,1,21.6,30.276,12.536,12.536,0,0,0,23.786,26H25a1,1,0,0,0,0-2H21V23a1,1,0,0,0-2,0v1H15a1,1,0,0,0,0,2Z"/><path d="M39.553,33.9a1,1,0,0,0,1.342-.448L45,25.236,46.882,29H45a1,1,0,0,0,0,2h2.882l1.223,2.447a1,1,0,0,0,1.79-.894l-5-10a1.042,1.042,0,0,0-1.79,0l-5,10A1,1,0,0,0,39.553,33.9Z"/><path d="M60,12H57V9a1,1,0,0,0-1-1H41a15.859,15.859,0,0,0-5.059.822A16.046,16.046,0,0,0,32,10.786,15.858,15.858,0,0,0,23,8H8A1,1,0,0,0,7,9v3H4a1,1,0,0,0-1,1V51a1,1,0,0,0,1,1H25v2a2,2,0,0,0,2,2H37a2,2,0,0,0,2-2V52H60a1,1,0,0,0,1-1V13A1,1,0,0,0,60,12ZM36.578,10.718A13.882,13.882,0,0,1,41,10H55V46H41c-.382,0-.762.016-1.14.042-.124.009-.246.025-.369.036-.254.024-.507.049-.758.085-.144.02-.286.046-.429.07-.229.039-.456.08-.682.129-.149.032-.3.067-.444.1q-.328.081-.652.174c-.146.043-.292.086-.437.133-.217.07-.432.147-.647.226-.137.051-.275.1-.41.155-.23.093-.455.194-.68.3-.115.053-.232.1-.347.158-.3.148-.6.308-.9.476-.032.018-.064.033-.095.051L33,48.141V12.51A14.046,14.046,0,0,1,36.578,10.718ZM9,10H23a13.88,13.88,0,0,1,8,2.511v35.63l-.011-.006c-.031-.018-.063-.033-.1-.051-.295-.168-.595-.328-.9-.476-.115-.056-.232-.1-.347-.158-.225-.1-.45-.2-.68-.3-.135-.054-.273-.1-.41-.155-.215-.079-.43-.156-.647-.226-.145-.047-.291-.09-.437-.133q-.324-.093-.652-.174c-.148-.036-.295-.071-.444-.1-.226-.049-.453-.09-.682-.129-.143-.024-.285-.05-.429-.07-.251-.036-.5-.061-.758-.085-.123-.011-.245-.027-.369-.036C23.762,46.016,23.382,46,23,46H9V10ZM59,50H39a2,2,0,0,0-2,2v2H27V52a2,2,0,0,0-2-2H5V14H7V47a1,1,0,0,0,1,1H23a13.894,13.894,0,0,1,8.4,2.8c.019.014.043.02.063.033s.057.045.09.062c.016.008.035,0,.052.012s.053.033.082.043.064.008.095.015a.718.718,0,0,0,.449,0c.027-.007.055-.005.082-.013s.054-.031.082-.043.036,0,.052-.012c.033-.017.059-.042.09-.062s.044-.019.063-.033A13.894,13.894,0,0,1,41,48H56a1,1,0,0,0,1-1V14h2Z"/></g></svg>