<svg fill="#d1d5db" xmlns="http://www.w3.org/2000/svg" xmlns:xlink="http://www.w3.org/1999/xlink" version="1.1" x="0px" y="0px" viewBox="0 0 64 64" xml:space="preserve"><path d="M32.172,44.144h-0.344c-1.534,0-3.036-0.622-4.121-1.707l-1.414,1.414c1.457,1.457,3.475,2.293,5.535,2.293h0.344  c2.061,0,4.078-0.836,5.535-2.293l-1.414-1.414C35.208,43.521,33.706,44.144,32.172,44.144z"/><path d="M52,29h-0.051C51.423,18.438,42.691,10,32,10s-19.423,8.438-19.949,19H12c-2.206,0-4,1.794-4,4v6c0,2.206,1.794,4,4,4h4  c0.099,0,0.188-0.03,0.278-0.056c1.508,2.523,3.616,4.571,6.104,5.989C18.276,51.953,13.999,56.104,14,62h2  c-0.001-5.118,3.829-8.754,7.81-11.637l7.409,9.261c0.381,0.475,1.182,0.475,1.563,0l7.407-9.259C45.372,54.175,47.999,58.086,48,62  h2c-0.001-4.517-2.822-8.908-8.386-13.065c2.49-1.417,4.6-3.466,6.109-5.991C47.812,42.97,47.901,43,48,43h4c2.206,0,4-1.794,4-4v-6  C56,30.794,54.206,29,52,29z M32,12c9.587,0,17.426,7.541,17.949,17h-1C48.431,21.195,41.934,15,34,15h-4  c-7.934,0-14.431,6.195-14.949,14h-1C14.574,19.541,22.413,12,32,12z M17,30c0-7.168,5.832-13,13-13h4c7.168,0,13,5.832,13,13v0.144  H37c-4.411,0-8-3.589-8-8c0-0.552-0.447-1-1-1s-1,0.448-1,1c0,4.411-3.589,8-8,8h-2V30z M15,41h-3c-1.103,0-2-0.897-2-2v-6  c0-1.103,0.897-2,2-2h3v3.144V41z M32,57.399l-5.43-6.788c1.351,0.343,2.757,0.532,4.201,0.532h2.459c1.444,0,2.85-0.19,4.201-0.532  L32,57.399z M33.229,49.144h-2.459c-6.073,0-11.455-3.611-13.771-9.211v-5.789v-2h2c3.953,0,7.378-2.306,9-5.643  c1.622,3.337,5.047,5.643,9,5.643h10V33v6.932C44.685,45.532,39.302,49.144,33.229,49.144z M54,39c0,1.103-0.897,2-2,2h-3v-8v-2h3  c1.103,0,2,0.897,2,2V39z"/><path d="M29.553,36.105c-2.287,1.144-4.959,1.254-7.334,0.305l-0.848-0.339l-0.742,1.857l0.848,0.339  c1.308,0.523,2.689,0.783,4.069,0.783c1.684,0,3.364-0.387,4.901-1.156L29.553,36.105z"/><path d="M41.781,36.41c-2.374,0.949-5.047,0.839-7.334-0.305l-0.895,1.789c1.538,0.769,3.218,1.156,4.901,1.156  c1.38,0,2.762-0.26,4.069-0.783l0.848-0.339l-0.742-1.857L41.781,36.41z"/><path d="M9.293,10.293l1.414,1.414l2-2C12.895,9.52,13,9.265,13,9V3c0-0.552-0.447-1-1-1H6C5.447,2,5,2.448,5,3v5.586l-1.707,1.707  l1.414,1.414l2-2C6.895,9.52,7,9.265,7,9V7h4v1.586L9.293,10.293z M7,5V4h4v1H7z"/><rect x="4" y="18" width="2" height="2"/><rect x="6" y="20" width="2" height="2"/><rect x="2" y="20" width="2" height="2"/><rect x="4" y="22" width="2" height="2"/><path d="M61,7h-6c-0.553,0-1,0.448-1,1v5.586l-1.707,1.707l1.414,1.414l2-2C55.895,14.52,56,14.265,56,14v-2h4v1.586l-1.707,1.707  l1.414,1.414l2-2C61.895,14.52,62,14.265,62,14V8C62,7.448,61.553,7,61,7z M56,10V9h4v1H56z"/><rect x="58" y="26" width="2" height="2"/><rect x="60" y="28" width="2" height="2"/><rect x="56" y="28" width="2" height="2"/><rect x="58" y="30" width="2" height="2"/></svg>